<?xml version="1.0" encoding="utf-8" standalone="no"?>
<!DOCTYPE svg PUBLIC "-//W3C//DTD SVG 1.1//EN"
  "http://www.w3.org/Graphics/SVG/1.1/DTD/svg11.dtd">
<svg xmlns:xlink="http://www.w3.org/1999/xlink" width="712.8pt" height="352.477812pt" viewBox="0 0 712.8 352.477812" xmlns="http://www.w3.org/2000/svg" version="1.1">
 <metadata>
  <rdf:RDF xmlns:dc="http://purl.org/dc/elements/1.1/" xmlns:cc="http://creativecommons.org/ns#" xmlns:rdf="http://www.w3.org/1999/02/22-rdf-syntax-ns#">
   <cc:Work>
    <dc:type rdf:resource="http://purl.org/dc/dcmitype/StillImage"/>
    <dc:date>2026-02-19T12:11:29.468409</dc:date>
    <dc:format>image/svg+xml</dc:format>
    <dc:creator>
     <cc:Agent>
      <dc:title>Matplotlib v3.10.5, https://matplotlib.org/</dc:title>
     </cc:Agent>
    </dc:creator>
   </cc:Work>
  </rdf:RDF>
 </metadata>
 <defs>
  <style type="text/css">*{stroke-linejoin: round; stroke-linecap: butt}</style>
 </defs>
 <g id="figure_1">
  <g id="patch_1">
   <path d="M 0 352.477812 
L 712.8 352.477812 
L 712.8 0 
L 0 0 
L 0 352.477812 
z
" style="fill: none"/>
  </g>
  <g id="axes_1">
   <g id="patch_2">
    <path d="M 63.072 271.626612 
L 216.72 271.626612 
Q 219.5136 271.626612 219.5136 268.557812 
L 219.5136 130.461812 
Q 219.5136 127.393012 216.72 127.393012 
L 63.072 127.393012 
Q 60.2784 127.393012 60.2784 130.461812 
L 60.2784 268.557812 
Q 60.2784 271.626612 63.072 271.626612 
z
" clip-path="url(#pc63c8e56a0)" style="fill: #f97316; fill-opacity: 0.25098; stroke: #f97316; stroke-linejoin: miter"/>
   </g>
   <g id="patch_3">
    <path d="M 272.592 271.626612 
L 426.24 271.626612 
Q 429.0336 271.626612 429.0336 268.557812 
L 429.0336 130.461812 
Q 429.0336 127.393012 426.24 127.393012 
L 272.592 127.393012 
Q 269.7984 127.393012 269.7984 130.461812 
L 269.7984 268.557812 
Q 269.7984 271.626612 272.592 271.626612 
z
" clip-path="url(#pc63c8e56a0)" style="fill: #f97316; fill-opacity: 0.25098; stroke: #f97316; stroke-linejoin: miter"/>
   </g>
   <g id="patch_4">
    <path d="M 482.112 271.626612 
L 635.76 271.626612 
Q 638.5536 271.626612 638.5536 268.557812 
L 638.5536 130.461812 
Q 638.5536 127.393012 635.76 127.393012 
L 482.112 127.393012 
Q 479.3184 127.393012 479.3184 130.461812 
L 479.3184 268.557812 
Q 479.3184 271.626612 482.112 271.626612 
z
" clip-path="url(#pc63c8e56a0)" style="fill: #f97316; fill-opacity: 0.25098; stroke: #f97316; stroke-linejoin: miter"/>
   </g>
   <g id="text_1">
    <!-- 27 k€/mois -->
    <g style="fill: #fde047" transform="translate(84.700688 173.788687) scale(0.18 -0.18)">
     <defs>
      <path id="DejaVuSans-Bold-32" d="M 1844 884 
L 3897 884 
L 3897 0 
L 506 0 
L 506 884 
L 2209 2388 
Q 2438 2594 2547 2791 
Q 2656 2988 2656 3200 
Q 2656 3528 2436 3728 
Q 2216 3928 1850 3928 
Q 1569 3928 1234 3808 
Q 900 3688 519 3450 
L 519 4475 
Q 925 4609 1322 4679 
Q 1719 4750 2100 4750 
Q 2938 4750 3402 4381 
Q 3866 4013 3866 3353 
Q 3866 2972 3669 2642 
Q 3472 2313 2841 1759 
L 1844 884 
z
" transform="scale(0.015625)"/>
      <path id="DejaVuSans-Bold-37" d="M 428 4666 
L 3944 4666 
L 3944 3988 
L 2125 0 
L 953 0 
L 2675 3781 
L 428 3781 
L 428 4666 
z
" transform="scale(0.015625)"/>
      <path id="DejaVuSans-Bold-20" transform="scale(0.015625)"/>
      <path id="DejaVuSans-Bold-6b" d="M 538 4863 
L 1656 4863 
L 1656 2216 
L 2944 3500 
L 4244 3500 
L 2534 1894 
L 4378 0 
L 3022 0 
L 1656 1459 
L 1656 0 
L 538 0 
L 538 4863 
z
" transform="scale(0.015625)"/>
      <path id="DejaVuSans-Bold-20ac" d="M 4025 256 
Q 3728 84 3404 -3 
Q 3081 -91 2731 -91 
Q 1913 -91 1352 317 
Q 791 725 556 1491 
L -122 1491 
L 153 2100 
L 459 2100 
Q 456 2144 454 2192 
Q 453 2241 453 2328 
Q 453 2419 454 2469 
Q 456 2519 459 2566 
L -122 2566 
L 153 3175 
L 556 3175 
Q 797 3944 1355 4347 
Q 1913 4750 2731 4750 
Q 3081 4750 3404 4662 
Q 3728 4575 4025 4403 
L 4025 3438 
Q 3772 3681 3484 3804 
Q 3197 3928 2888 3928 
Q 2491 3928 2211 3736 
Q 1931 3544 1791 3175 
L 3475 3175 
L 3206 2566 
L 1666 2566 
Q 1659 2516 1657 2459 
Q 1656 2403 1656 2291 
Q 1656 2250 1657 2201 
Q 1659 2153 1663 2100 
L 3003 2100 
L 2725 1491 
L 1791 1491 
Q 1947 1109 2220 918 
Q 2494 728 2888 728 
Q 3197 728 3480 851 
Q 3763 975 4025 1222 
L 4025 256 
z
" transform="scale(0.015625)"/>
      <path id="DejaVuSans-Bold-2f" d="M 1644 4666 
L 2338 4666 
L 691 -594 
L 0 -594 
L 1644 4666 
z
" transform="scale(0.015625)"/>
      <path id="DejaVuSans-Bold-6d" d="M 3781 2919 
Q 3994 3244 4286 3414 
Q 4578 3584 4928 3584 
Q 5531 3584 5847 3212 
Q 6163 2841 6163 2131 
L 6163 0 
L 5038 0 
L 5038 1825 
Q 5041 1866 5042 1909 
Q 5044 1953 5044 2034 
Q 5044 2406 4934 2573 
Q 4825 2741 4581 2741 
Q 4263 2741 4089 2478 
Q 3916 2216 3909 1719 
L 3909 0 
L 2784 0 
L 2784 1825 
Q 2784 2406 2684 2573 
Q 2584 2741 2328 2741 
Q 2006 2741 1831 2477 
Q 1656 2213 1656 1722 
L 1656 0 
L 531 0 
L 531 3500 
L 1656 3500 
L 1656 2988 
Q 1863 3284 2130 3434 
Q 2397 3584 2719 3584 
Q 3081 3584 3359 3409 
Q 3638 3234 3781 2919 
z
" transform="scale(0.015625)"/>
      <path id="DejaVuSans-Bold-6f" d="M 2203 2784 
Q 1831 2784 1636 2517 
Q 1441 2250 1441 1747 
Q 1441 1244 1636 976 
Q 1831 709 2203 709 
Q 2569 709 2762 976 
Q 2956 1244 2956 1747 
Q 2956 2250 2762 2517 
Q 2569 2784 2203 2784 
z
M 2203 3584 
Q 3106 3584 3614 3096 
Q 4122 2609 4122 1747 
Q 4122 884 3614 396 
Q 3106 -91 2203 -91 
Q 1297 -91 786 396 
Q 275 884 275 1747 
Q 275 2609 786 3096 
Q 1297 3584 2203 3584 
z
" transform="scale(0.015625)"/>
      <path id="DejaVuSans-Bold-69" d="M 538 3500 
L 1656 3500 
L 1656 0 
L 538 0 
L 538 3500 
z
M 538 4863 
L 1656 4863 
L 1656 3950 
L 538 3950 
L 538 4863 
z
" transform="scale(0.015625)"/>
      <path id="DejaVuSans-Bold-73" d="M 3272 3391 
L 3272 2541 
Q 2913 2691 2578 2766 
Q 2244 2841 1947 2841 
Q 1628 2841 1473 2761 
Q 1319 2681 1319 2516 
Q 1319 2381 1436 2309 
Q 1553 2238 1856 2203 
L 2053 2175 
Q 2913 2066 3209 1816 
Q 3506 1566 3506 1031 
Q 3506 472 3093 190 
Q 2681 -91 1863 -91 
Q 1516 -91 1145 -36 
Q 775 19 384 128 
L 384 978 
Q 719 816 1070 734 
Q 1422 653 1784 653 
Q 2113 653 2278 743 
Q 2444 834 2444 1013 
Q 2444 1163 2330 1236 
Q 2216 1309 1875 1350 
L 1678 1375 
Q 931 1469 631 1722 
Q 331 1975 331 2491 
Q 331 3047 712 3315 
Q 1094 3584 1881 3584 
Q 2191 3584 2531 3537 
Q 2872 3491 3272 3391 
z
" transform="scale(0.015625)"/>
     </defs>
     <use xlink:href="#DejaVuSans-Bold-32"/>
     <use xlink:href="#DejaVuSans-Bold-37" transform="translate(69.580078 0)"/>
     <use xlink:href="#DejaVuSans-Bold-20" transform="translate(139.160156 0)"/>
     <use xlink:href="#DejaVuSans-Bold-6b" transform="translate(173.974609 0)"/>
     <use xlink:href="#DejaVuSans-Bold-20ac" transform="translate(240.478516 0)"/>
     <use xlink:href="#DejaVuSans-Bold-2f" transform="translate(310.058594 0)"/>
     <use xlink:href="#DejaVuSans-Bold-6d" transform="translate(346.582031 0)"/>
     <use xlink:href="#DejaVuSans-Bold-6f" transform="translate(450.78125 0)"/>
     <use xlink:href="#DejaVuSans-Bold-69" transform="translate(519.482422 0)"/>
     <use xlink:href="#DejaVuSans-Bold-73" transform="translate(553.759766 0)"/>
    </g>
   </g>
   <g id="text_2">
    <!-- 5k visites × 2% × 900€ × 30% -->
    <g style="fill: #ffffff" transform="translate(85.629594 232.129375) scale(0.07 -0.07)">
     <defs>
      <path id="DejaVuSans-35" d="M 691 4666 
L 3169 4666 
L 3169 4134 
L 1269 4134 
L 1269 2991 
Q 1406 3038 1543 3061 
Q 1681 3084 1819 3084 
Q 2600 3084 3056 2656 
Q 3513 2228 3513 1497 
Q 3513 744 3044 326 
Q 2575 -91 1722 -91 
Q 1428 -91 1123 -41 
Q 819 9 494 109 
L 494 744 
Q 775 591 1075 516 
Q 1375 441 1709 441 
Q 2250 441 2565 725 
Q 2881 1009 2881 1497 
Q 2881 1984 2565 2268 
Q 2250 2553 1709 2553 
Q 1456 2553 1204 2497 
Q 953 2441 691 2322 
L 691 4666 
z
" transform="scale(0.015625)"/>
      <path id="DejaVuSans-6b" d="M 581 4863 
L 1159 4863 
L 1159 1991 
L 2875 3500 
L 3609 3500 
L 1753 1863 
L 3688 0 
L 2938 0 
L 1159 1709 
L 1159 0 
L 581 0 
L 581 4863 
z
" transform="scale(0.015625)"/>
      <path id="DejaVuSans-20" transform="scale(0.015625)"/>
      <path id="DejaVuSans-76" d="M 191 3500 
L 800 3500 
L 1894 563 
L 2988 3500 
L 3597 3500 
L 2284 0 
L 1503 0 
L 191 3500 
z
" transform="scale(0.015625)"/>
      <path id="DejaVuSans-69" d="M 603 3500 
L 1178 3500 
L 1178 0 
L 603 0 
L 603 3500 
z
M 603 4863 
L 1178 4863 
L 1178 4134 
L 603 4134 
L 603 4863 
z
" transform="scale(0.015625)"/>
      <path id="DejaVuSans-73" d="M 2834 3397 
L 2834 2853 
Q 2591 2978 2328 3040 
Q 2066 3103 1784 3103 
Q 1356 3103 1142 2972 
Q 928 2841 928 2578 
Q 928 2378 1081 2264 
Q 1234 2150 1697 2047 
L 1894 2003 
Q 2506 1872 2764 1633 
Q 3022 1394 3022 966 
Q 3022 478 2636 193 
Q 2250 -91 1575 -91 
Q 1294 -91 989 -36 
Q 684 19 347 128 
L 347 722 
Q 666 556 975 473 
Q 1284 391 1588 391 
Q 1994 391 2212 530 
Q 2431 669 2431 922 
Q 2431 1156 2273 1281 
Q 2116 1406 1581 1522 
L 1381 1569 
Q 847 1681 609 1914 
Q 372 2147 372 2553 
Q 372 3047 722 3315 
Q 1072 3584 1716 3584 
Q 2034 3584 2315 3537 
Q 2597 3491 2834 3397 
z
" transform="scale(0.015625)"/>
      <path id="DejaVuSans-74" d="M 1172 4494 
L 1172 3500 
L 2356 3500 
L 2356 3053 
L 1172 3053 
L 1172 1153 
Q 1172 725 1289 603 
Q 1406 481 1766 481 
L 2356 481 
L 2356 0 
L 1766 0 
Q 1100 0 847 248 
Q 594 497 594 1153 
L 594 3053 
L 172 3053 
L 172 3500 
L 594 3500 
L 594 4494 
L 1172 4494 
z
" transform="scale(0.015625)"/>
      <path id="DejaVuSans-65" d="M 3597 1894 
L 3597 1613 
L 953 1613 
Q 991 1019 1311 708 
Q 1631 397 2203 397 
Q 2534 397 2845 478 
Q 3156 559 3463 722 
L 3463 178 
Q 3153 47 2828 -22 
Q 2503 -91 2169 -91 
Q 1331 -91 842 396 
Q 353 884 353 1716 
Q 353 2575 817 3079 
Q 1281 3584 2069 3584 
Q 2775 3584 3186 3129 
Q 3597 2675 3597 1894 
z
M 3022 2063 
Q 3016 2534 2758 2815 
Q 2500 3097 2075 3097 
Q 1594 3097 1305 2825 
Q 1016 2553 972 2059 
L 3022 2063 
z
" transform="scale(0.015625)"/>
      <path id="DejaVuSans-d7" d="M 4488 3438 
L 3059 2003 
L 4488 575 
L 4116 197 
L 2681 1631 
L 1247 197 
L 878 575 
L 2303 2003 
L 878 3438 
L 1247 3816 
L 2681 2381 
L 4116 3816 
L 4488 3438 
z
" transform="scale(0.015625)"/>
      <path id="DejaVuSans-32" d="M 1228 531 
L 3431 531 
L 3431 0 
L 469 0 
L 469 531 
Q 828 903 1448 1529 
Q 2069 2156 2228 2338 
Q 2531 2678 2651 2914 
Q 2772 3150 2772 3378 
Q 2772 3750 2511 3984 
Q 2250 4219 1831 4219 
Q 1534 4219 1204 4116 
Q 875 4013 500 3803 
L 500 4441 
Q 881 4594 1212 4672 
Q 1544 4750 1819 4750 
Q 2544 4750 2975 4387 
Q 3406 4025 3406 3419 
Q 3406 3131 3298 2873 
Q 3191 2616 2906 2266 
Q 2828 2175 2409 1742 
Q 1991 1309 1228 531 
z
" transform="scale(0.015625)"/>
      <path id="DejaVuSans-25" d="M 4653 2053 
Q 4381 2053 4226 1822 
Q 4072 1591 4072 1178 
Q 4072 772 4226 539 
Q 4381 306 4653 306 
Q 4919 306 5073 539 
Q 5228 772 5228 1178 
Q 5228 1588 5073 1820 
Q 4919 2053 4653 2053 
z
M 4653 2450 
Q 5147 2450 5437 2106 
Q 5728 1763 5728 1178 
Q 5728 594 5436 251 
Q 5144 -91 4653 -91 
Q 4153 -91 3862 251 
Q 3572 594 3572 1178 
Q 3572 1766 3864 2108 
Q 4156 2450 4653 2450 
z
M 1428 4353 
Q 1159 4353 1004 4120 
Q 850 3888 850 3481 
Q 850 3069 1003 2837 
Q 1156 2606 1428 2606 
Q 1700 2606 1854 2837 
Q 2009 3069 2009 3481 
Q 2009 3884 1853 4118 
Q 1697 4353 1428 4353 
z
M 4250 4750 
L 4750 4750 
L 1831 -91 
L 1331 -91 
L 4250 4750 
z
M 1428 4750 
Q 1922 4750 2215 4408 
Q 2509 4066 2509 3481 
Q 2509 2891 2217 2550 
Q 1925 2209 1428 2209 
Q 931 2209 642 2551 
Q 353 2894 353 3481 
Q 353 4063 643 4406 
Q 934 4750 1428 4750 
z
" transform="scale(0.015625)"/>
      <path id="DejaVuSans-39" d="M 703 97 
L 703 672 
Q 941 559 1184 500 
Q 1428 441 1663 441 
Q 2288 441 2617 861 
Q 2947 1281 2994 2138 
Q 2813 1869 2534 1725 
Q 2256 1581 1919 1581 
Q 1219 1581 811 2004 
Q 403 2428 403 3163 
Q 403 3881 828 4315 
Q 1253 4750 1959 4750 
Q 2769 4750 3195 4129 
Q 3622 3509 3622 2328 
Q 3622 1225 3098 567 
Q 2575 -91 1691 -91 
Q 1453 -91 1209 -44 
Q 966 3 703 97 
z
M 1959 2075 
Q 2384 2075 2632 2365 
Q 2881 2656 2881 3163 
Q 2881 3666 2632 3958 
Q 2384 4250 1959 4250 
Q 1534 4250 1286 3958 
Q 1038 3666 1038 3163 
Q 1038 2656 1286 2365 
Q 1534 2075 1959 2075 
z
" transform="scale(0.015625)"/>
      <path id="DejaVuSans-30" d="M 2034 4250 
Q 1547 4250 1301 3770 
Q 1056 3291 1056 2328 
Q 1056 1369 1301 889 
Q 1547 409 2034 409 
Q 2525 409 2770 889 
Q 3016 1369 3016 2328 
Q 3016 3291 2770 3770 
Q 2525 4250 2034 4250 
z
M 2034 4750 
Q 2819 4750 3233 4129 
Q 3647 3509 3647 2328 
Q 3647 1150 3233 529 
Q 2819 -91 2034 -91 
Q 1250 -91 836 529 
Q 422 1150 422 2328 
Q 422 3509 836 4129 
Q 1250 4750 2034 4750 
z
" transform="scale(0.015625)"/>
      <path id="DejaVuSans-20ac" d="M 3647 4306 
L 3647 3641 
Q 3363 3969 3098 4109 
Q 2834 4250 2516 4250 
Q 2025 4250 1709 3937 
Q 1394 3625 1294 3041 
L 3097 3041 
L 2925 2656 
L 1244 2656 
Q 1238 2581 1236 2509 
Q 1234 2438 1234 2328 
Q 1234 2228 1236 2156 
Q 1238 2084 1244 2009 
L 2638 2009 
L 2463 1625 
L 1294 1625 
Q 1394 1041 1709 725 
Q 2025 409 2516 409 
Q 2834 409 3098 550 
Q 3363 691 3647 1019 
L 3647 359 
Q 3369 134 3080 21 
Q 2791 -91 2491 -91 
Q 1750 -91 1267 362 
Q 784 816 659 1625 
L 0 1625 
L 172 2009 
L 606 2009 
Q 606 2081 604 2154 
Q 603 2228 603 2328 
Q 603 2438 604 2511 
Q 606 2584 606 2656 
L 0 2656 
L 172 3041 
L 659 3041 
Q 784 3844 1268 4297 
Q 1753 4750 2491 4750 
Q 2797 4750 3086 4639 
Q 3375 4528 3647 4306 
z
" transform="scale(0.015625)"/>
      <path id="DejaVuSans-33" d="M 2597 2516 
Q 3050 2419 3304 2112 
Q 3559 1806 3559 1356 
Q 3559 666 3084 287 
Q 2609 -91 1734 -91 
Q 1441 -91 1130 -33 
Q 819 25 488 141 
L 488 750 
Q 750 597 1062 519 
Q 1375 441 1716 441 
Q 2309 441 2620 675 
Q 2931 909 2931 1356 
Q 2931 1769 2642 2001 
Q 2353 2234 1838 2234 
L 1294 2234 
L 1294 2753 
L 1863 2753 
Q 2328 2753 2575 2939 
Q 2822 3125 2822 3475 
Q 2822 3834 2567 4026 
Q 2313 4219 1838 4219 
Q 1578 4219 1281 4162 
Q 984 4106 628 3988 
L 628 4550 
Q 988 4650 1302 4700 
Q 1616 4750 1894 4750 
Q 2613 4750 3031 4423 
Q 3450 4097 3450 3541 
Q 3450 3153 3228 2886 
Q 3006 2619 2597 2516 
z
" transform="scale(0.015625)"/>
     </defs>
     <use xlink:href="#DejaVuSans-35"/>
     <use xlink:href="#DejaVuSans-6b" transform="translate(63.623047 0)"/>
     <use xlink:href="#DejaVuSans-20" transform="translate(121.533203 0)"/>
     <use xlink:href="#DejaVuSans-76" transform="translate(153.320312 0)"/>
     <use xlink:href="#DejaVuSans-69" transform="translate(212.5 0)"/>
     <use xlink:href="#DejaVuSans-73" transform="translate(240.283203 0)"/>
     <use xlink:href="#DejaVuSans-69" transform="translate(292.382812 0)"/>
     <use xlink:href="#DejaVuSans-74" transform="translate(320.166016 0)"/>
     <use xlink:href="#DejaVuSans-65" transform="translate(359.375 0)"/>
     <use xlink:href="#DejaVuSans-73" transform="translate(420.898438 0)"/>
     <use xlink:href="#DejaVuSans-20" transform="translate(472.998047 0)"/>
     <use xlink:href="#DejaVuSans-d7" transform="translate(504.785156 0)"/>
     <use xlink:href="#DejaVuSans-20" transform="translate(588.574219 0)"/>
     <use xlink:href="#DejaVuSans-32" transform="translate(620.361328 0)"/>
     <use xlink:href="#DejaVuSans-25" transform="translate(683.984375 0)"/>
     <use xlink:href="#DejaVuSans-20" transform="translate(779.003906 0)"/>
     <use xlink:href="#DejaVuSans-d7" transform="translate(810.791016 0)"/>
     <use xlink:href="#DejaVuSans-20" transform="translate(894.580078 0)"/>
     <use xlink:href="#DejaVuSans-39" transform="translate(926.367188 0)"/>
     <use xlink:href="#DejaVuSans-30" transform="translate(989.990234 0)"/>
     <use xlink:href="#DejaVuSans-30" transform="translate(1053.613281 0)"/>
     <use xlink:href="#DejaVuSans-20ac" transform="translate(1117.236328 0)"/>
     <use xlink:href="#DejaVuSans-20" transform="translate(1180.859375 0)"/>
     <use xlink:href="#DejaVuSans-d7" transform="translate(1212.646484 0)"/>
     <use xlink:href="#DejaVuSans-20" transform="translate(1296.435547 0)"/>
     <use xlink:href="#DejaVuSans-33" transform="translate(1328.222656 0)"/>
     <use xlink:href="#DejaVuSans-30" transform="translate(1391.845703 0)"/>
     <use xlink:href="#DejaVuSans-25" transform="translate(1455.46875 0)"/>
    </g>
   </g>
   <g id="text_3">
    <!-- 54 k€/mois -->
    <g style="fill: #fde047" transform="translate(294.220688 173.788687) scale(0.18 -0.18)">
     <defs>
      <path id="DejaVuSans-Bold-35" d="M 678 4666 
L 3669 4666 
L 3669 3781 
L 1638 3781 
L 1638 3059 
Q 1775 3097 1914 3117 
Q 2053 3138 2203 3138 
Q 3056 3138 3531 2711 
Q 4006 2284 4006 1522 
Q 4006 766 3489 337 
Q 2972 -91 2053 -91 
Q 1656 -91 1267 -14 
Q 878 63 494 219 
L 494 1166 
Q 875 947 1217 837 
Q 1559 728 1863 728 
Q 2300 728 2551 942 
Q 2803 1156 2803 1522 
Q 2803 1891 2551 2103 
Q 2300 2316 1863 2316 
Q 1603 2316 1309 2248 
Q 1016 2181 678 2041 
L 678 4666 
z
" transform="scale(0.015625)"/>
      <path id="DejaVuSans-Bold-34" d="M 2356 3675 
L 1038 1722 
L 2356 1722 
L 2356 3675 
z
M 2156 4666 
L 3494 4666 
L 3494 1722 
L 4159 1722 
L 4159 850 
L 3494 850 
L 3494 0 
L 2356 0 
L 2356 850 
L 288 850 
L 288 1881 
L 2156 4666 
z
" transform="scale(0.015625)"/>
     </defs>
     <use xlink:href="#DejaVuSans-Bold-35"/>
     <use xlink:href="#DejaVuSans-Bold-34" transform="translate(69.580078 0)"/>
     <use xlink:href="#DejaVuSans-Bold-20" transform="translate(139.160156 0)"/>
     <use xlink:href="#DejaVuSans-Bold-6b" transform="translate(173.974609 0)"/>
     <use xlink:href="#DejaVuSans-Bold-20ac" transform="translate(240.478516 0)"/>
     <use xlink:href="#DejaVuSans-Bold-2f" transform="translate(310.058594 0)"/>
     <use xlink:href="#DejaVuSans-Bold-6d" transform="translate(346.582031 0)"/>
     <use xlink:href="#DejaVuSans-Bold-6f" transform="translate(450.78125 0)"/>
     <use xlink:href="#DejaVuSans-Bold-69" transform="translate(519.482422 0)"/>
     <use xlink:href="#DejaVuSans-Bold-73" transform="translate(553.759766 0)"/>
    </g>
   </g>
   <g id="text_4">
    <!-- 10k visites × 2% × 900€ × 30% -->
    <g style="fill: #ffffff" transform="translate(292.922719 232.129375) scale(0.07 -0.07)">
     <defs>
      <path id="DejaVuSans-31" d="M 794 531 
L 1825 531 
L 1825 4091 
L 703 3866 
L 703 4441 
L 1819 4666 
L 2450 4666 
L 2450 531 
L 3481 531 
L 3481 0 
L 794 0 
L 794 531 
z
" transform="scale(0.015625)"/>
     </defs>
     <use xlink:href="#DejaVuSans-31"/>
     <use xlink:href="#DejaVuSans-30" transform="translate(63.623047 0)"/>
     <use xlink:href="#DejaVuSans-6b" transform="translate(127.246094 0)"/>
     <use xlink:href="#DejaVuSans-20" transform="translate(185.15625 0)"/>
     <use xlink:href="#DejaVuSans-76" transform="translate(216.943359 0)"/>
     <use xlink:href="#DejaVuSans-69" transform="translate(276.123047 0)"/>
     <use xlink:href="#DejaVuSans-73" transform="translate(303.90625 0)"/>
     <use xlink:href="#DejaVuSans-69" transform="translate(356.005859 0)"/>
     <use xlink:href="#DejaVuSans-74" transform="translate(383.789062 0)"/>
     <use xlink:href="#DejaVuSans-65" transform="translate(422.998047 0)"/>
     <use xlink:href="#DejaVuSans-73" transform="translate(484.521484 0)"/>
     <use xlink:href="#DejaVuSans-20" transform="translate(536.621094 0)"/>
     <use xlink:href="#DejaVuSans-d7" transform="translate(568.408203 0)"/>
     <use xlink:href="#DejaVuSans-20" transform="translate(652.197266 0)"/>
     <use xlink:href="#DejaVuSans-32" transform="translate(683.984375 0)"/>
     <use xlink:href="#DejaVuSans-25" transform="translate(747.607422 0)"/>
     <use xlink:href="#DejaVuSans-20" transform="translate(842.626953 0)"/>
     <use xlink:href="#DejaVuSans-d7" transform="translate(874.414062 0)"/>
     <use xlink:href="#DejaVuSans-20" transform="translate(958.203125 0)"/>
     <use xlink:href="#DejaVuSans-39" transform="translate(989.990234 0)"/>
     <use xlink:href="#DejaVuSans-30" transform="translate(1053.613281 0)"/>
     <use xlink:href="#DejaVuSans-30" transform="translate(1117.236328 0)"/>
     <use xlink:href="#DejaVuSans-20ac" transform="translate(1180.859375 0)"/>
     <use xlink:href="#DejaVuSans-20" transform="translate(1244.482422 0)"/>
     <use xlink:href="#DejaVuSans-d7" transform="translate(1276.269531 0)"/>
     <use xlink:href="#DejaVuSans-20" transform="translate(1360.058594 0)"/>
     <use xlink:href="#DejaVuSans-33" transform="translate(1391.845703 0)"/>
     <use xlink:href="#DejaVuSans-30" transform="translate(1455.46875 0)"/>
     <use xlink:href="#DejaVuSans-25" transform="translate(1519.091797 0)"/>
    </g>
   </g>
   <g id="text_5">
    <!-- 180 k€/mois -->
    <g style="fill: #fde047" transform="translate(497.478656 173.788687) scale(0.18 -0.18)">
     <defs>
      <path id="DejaVuSans-Bold-31" d="M 750 831 
L 1813 831 
L 1813 3847 
L 722 3622 
L 722 4441 
L 1806 4666 
L 2950 4666 
L 2950 831 
L 4013 831 
L 4013 0 
L 750 0 
L 750 831 
z
" transform="scale(0.015625)"/>
      <path id="DejaVuSans-Bold-38" d="M 2228 2088 
Q 1891 2088 1709 1903 
Q 1528 1719 1528 1375 
Q 1528 1031 1709 848 
Q 1891 666 2228 666 
Q 2563 666 2741 848 
Q 2919 1031 2919 1375 
Q 2919 1722 2741 1905 
Q 2563 2088 2228 2088 
z
M 1350 2484 
Q 925 2613 709 2878 
Q 494 3144 494 3541 
Q 494 4131 934 4440 
Q 1375 4750 2228 4750 
Q 3075 4750 3515 4442 
Q 3956 4134 3956 3541 
Q 3956 3144 3739 2878 
Q 3522 2613 3097 2484 
Q 3572 2353 3814 2058 
Q 4056 1763 4056 1313 
Q 4056 619 3595 264 
Q 3134 -91 2228 -91 
Q 1319 -91 855 264 
Q 391 619 391 1313 
Q 391 1763 633 2058 
Q 875 2353 1350 2484 
z
M 1631 3419 
Q 1631 3141 1786 2991 
Q 1941 2841 2228 2841 
Q 2509 2841 2662 2991 
Q 2816 3141 2816 3419 
Q 2816 3697 2662 3845 
Q 2509 3994 2228 3994 
Q 1941 3994 1786 3844 
Q 1631 3694 1631 3419 
z
" transform="scale(0.015625)"/>
      <path id="DejaVuSans-Bold-30" d="M 2944 2338 
Q 2944 3213 2780 3570 
Q 2616 3928 2228 3928 
Q 1841 3928 1675 3570 
Q 1509 3213 1509 2338 
Q 1509 1453 1675 1090 
Q 1841 728 2228 728 
Q 2613 728 2778 1090 
Q 2944 1453 2944 2338 
z
M 4147 2328 
Q 4147 1169 3647 539 
Q 3147 -91 2228 -91 
Q 1306 -91 806 539 
Q 306 1169 306 2328 
Q 306 3491 806 4120 
Q 1306 4750 2228 4750 
Q 3147 4750 3647 4120 
Q 4147 3491 4147 2328 
z
" transform="scale(0.015625)"/>
     </defs>
     <use xlink:href="#DejaVuSans-Bold-31"/>
     <use xlink:href="#DejaVuSans-Bold-38" transform="translate(69.580078 0)"/>
     <use xlink:href="#DejaVuSans-Bold-30" transform="translate(139.160156 0)"/>
     <use xlink:href="#DejaVuSans-Bold-20" transform="translate(208.740234 0)"/>
     <use xlink:href="#DejaVuSans-Bold-6b" transform="translate(243.554688 0)"/>
     <use xlink:href="#DejaVuSans-Bold-20ac" transform="translate(310.058594 0)"/>
     <use xlink:href="#DejaVuSans-Bold-2f" transform="translate(379.638672 0)"/>
     <use xlink:href="#DejaVuSans-Bold-6d" transform="translate(416.162109 0)"/>
     <use xlink:href="#DejaVuSans-Bold-6f" transform="translate(520.361328 0)"/>
     <use xlink:href="#DejaVuSans-Bold-69" transform="translate(589.0625 0)"/>
     <use xlink:href="#DejaVuSans-Bold-73" transform="translate(623.339844 0)"/>
    </g>
   </g>
   <g id="text_6">
    <!-- 10k visites × 5% × 1200€ × 30% -->
    <g style="fill: #ffffff" transform="translate(500.215844 232.129375) scale(0.07 -0.07)">
     <use xlink:href="#DejaVuSans-31"/>
     <use xlink:href="#DejaVuSans-30" transform="translate(63.623047 0)"/>
     <use xlink:href="#DejaVuSans-6b" transform="translate(127.246094 0)"/>
     <use xlink:href="#DejaVuSans-20" transform="translate(185.15625 0)"/>
     <use xlink:href="#DejaVuSans-76" transform="translate(216.943359 0)"/>
     <use xlink:href="#DejaVuSans-69" transform="translate(276.123047 0)"/>
     <use xlink:href="#DejaVuSans-73" transform="translate(303.90625 0)"/>
     <use xlink:href="#DejaVuSans-69" transform="translate(356.005859 0)"/>
     <use xlink:href="#DejaVuSans-74" transform="translate(383.789062 0)"/>
     <use xlink:href="#DejaVuSans-65" transform="translate(422.998047 0)"/>
     <use xlink:href="#DejaVuSans-73" transform="translate(484.521484 0)"/>
     <use xlink:href="#DejaVuSans-20" transform="translate(536.621094 0)"/>
     <use xlink:href="#DejaVuSans-d7" transform="translate(568.408203 0)"/>
     <use xlink:href="#DejaVuSans-20" transform="translate(652.197266 0)"/>
     <use xlink:href="#DejaVuSans-35" transform="translate(683.984375 0)"/>
     <use xlink:href="#DejaVuSans-25" transform="translate(747.607422 0)"/>
     <use xlink:href="#DejaVuSans-20" transform="translate(842.626953 0)"/>
     <use xlink:href="#DejaVuSans-d7" transform="translate(874.414062 0)"/>
     <use xlink:href="#DejaVuSans-20" transform="translate(958.203125 0)"/>
     <use xlink:href="#DejaVuSans-31" transform="translate(989.990234 0)"/>
     <use xlink:href="#DejaVuSans-32" transform="translate(1053.613281 0)"/>
     <use xlink:href="#DejaVuSans-30" transform="translate(1117.236328 0)"/>
     <use xlink:href="#DejaVuSans-30" transform="translate(1180.859375 0)"/>
     <use xlink:href="#DejaVuSans-20ac" transform="translate(1244.482422 0)"/>
     <use xlink:href="#DejaVuSans-20" transform="translate(1308.105469 0)"/>
     <use xlink:href="#DejaVuSans-d7" transform="translate(1339.892578 0)"/>
     <use xlink:href="#DejaVuSans-20" transform="translate(1423.681641 0)"/>
     <use xlink:href="#DejaVuSans-33" transform="translate(1455.46875 0)"/>
     <use xlink:href="#DejaVuSans-30" transform="translate(1519.091797 0)"/>
     <use xlink:href="#DejaVuSans-25" transform="translate(1582.714844 0)"/>
    </g>
   </g>
   <g id="text_7">
    <!-- À recalibrer avec trafic réel + CVR + AOV (GA4) -->
    <g style="fill: #ffffff" transform="translate(248.263594 306.917812) scale(0.09 -0.09)">
     <defs>
      <path id="DejaVuSans-Oblique-c0" d="M 2356 4666 
L 3072 4666 
L 3938 0 
L 3278 0 
L 3084 1197 
L 984 1197 
L 325 0 
L -341 0 
L 2356 4666 
z
M 2584 4044 
L 1275 1722 
L 2988 1722 
L 2584 4044 
z
M 2702 5921 
L 3164 5096 
L 2727 5096 
L 2133 5921 
L 2702 5921 
z
" transform="scale(0.015625)"/>
      <path id="DejaVuSans-Oblique-20" transform="scale(0.015625)"/>
      <path id="DejaVuSans-Oblique-72" d="M 2853 2969 
Q 2766 3016 2653 3041 
Q 2541 3066 2413 3066 
Q 1953 3066 1609 2717 
Q 1266 2369 1153 1784 
L 800 0 
L 225 0 
L 909 3500 
L 1484 3500 
L 1375 2956 
Q 1603 3259 1920 3421 
Q 2238 3584 2597 3584 
Q 2691 3584 2781 3573 
Q 2872 3563 2963 3538 
L 2853 2969 
z
" transform="scale(0.015625)"/>
      <path id="DejaVuSans-Oblique-65" d="M 3078 2063 
Q 3088 2113 3092 2166 
Q 3097 2219 3097 2272 
Q 3097 2653 2873 2875 
Q 2650 3097 2266 3097 
Q 1838 3097 1509 2826 
Q 1181 2556 1013 2059 
L 3078 2063 
z
M 3578 1613 
L 903 1613 
Q 884 1494 878 1425 
Q 872 1356 872 1306 
Q 872 872 1139 634 
Q 1406 397 1894 397 
Q 2269 397 2603 481 
Q 2938 566 3225 728 
L 3116 159 
Q 2806 34 2476 -28 
Q 2147 -91 1806 -91 
Q 1078 -91 686 257 
Q 294 606 294 1247 
Q 294 1794 489 2264 
Q 684 2734 1063 3103 
Q 1306 3334 1642 3459 
Q 1978 3584 2356 3584 
Q 2950 3584 3301 3228 
Q 3653 2872 3653 2272 
Q 3653 2128 3634 1964 
Q 3616 1800 3578 1613 
z
" transform="scale(0.015625)"/>
      <path id="DejaVuSans-Oblique-63" d="M 3431 3366 
L 3316 2797 
Q 3109 2947 2876 3022 
Q 2644 3097 2394 3097 
Q 2119 3097 1870 3000 
Q 1622 2903 1453 2725 
Q 1184 2453 1037 2087 
Q 891 1722 891 1331 
Q 891 859 1127 628 
Q 1363 397 1844 397 
Q 2081 397 2348 469 
Q 2616 541 2906 684 
L 2797 116 
Q 2547 13 2283 -39 
Q 2019 -91 1741 -91 
Q 1044 -91 669 257 
Q 294 606 294 1253 
Q 294 1797 489 2255 
Q 684 2713 1069 3078 
Q 1331 3328 1684 3456 
Q 2038 3584 2456 3584 
Q 2700 3584 2940 3529 
Q 3181 3475 3431 3366 
z
" transform="scale(0.015625)"/>
      <path id="DejaVuSans-Oblique-61" d="M 3438 1997 
L 3047 0 
L 2472 0 
L 2578 531 
Q 2325 219 2001 64 
Q 1678 -91 1281 -91 
Q 834 -91 548 182 
Q 263 456 263 884 
Q 263 1497 752 1853 
Q 1241 2209 2100 2209 
L 2900 2209 
L 2931 2363 
Q 2938 2388 2941 2417 
Q 2944 2447 2944 2509 
Q 2944 2788 2717 2942 
Q 2491 3097 2081 3097 
Q 1800 3097 1504 3025 
Q 1209 2953 897 2809 
L 997 3341 
Q 1322 3463 1633 3523 
Q 1944 3584 2234 3584 
Q 2853 3584 3176 3315 
Q 3500 3047 3500 2534 
Q 3500 2431 3484 2292 
Q 3469 2153 3438 1997 
z
M 2816 1759 
L 2241 1759 
Q 1534 1759 1195 1570 
Q 856 1381 856 984 
Q 856 709 1029 553 
Q 1203 397 1509 397 
Q 1978 397 2328 733 
Q 2678 1069 2791 1631 
L 2816 1759 
z
" transform="scale(0.015625)"/>
      <path id="DejaVuSans-Oblique-6c" d="M 1172 4863 
L 1747 4863 
L 800 0 
L 225 0 
L 1172 4863 
z
" transform="scale(0.015625)"/>
      <path id="DejaVuSans-Oblique-69" d="M 1172 4863 
L 1747 4863 
L 1606 4134 
L 1031 4134 
L 1172 4863 
z
M 909 3500 
L 1484 3500 
L 800 0 
L 225 0 
L 909 3500 
z
" transform="scale(0.015625)"/>
      <path id="DejaVuSans-Oblique-62" d="M 3169 2138 
Q 3169 2591 2961 2847 
Q 2753 3103 2388 3103 
Q 2122 3103 1889 2973 
Q 1656 2844 1484 2597 
Q 1303 2338 1198 1995 
Q 1094 1653 1094 1313 
Q 1094 881 1298 636 
Q 1503 391 1863 391 
Q 2134 391 2365 517 
Q 2597 644 2772 891 
Q 2950 1147 3059 1487 
Q 3169 1828 3169 2138 
z
M 1381 2969 
Q 1594 3256 1914 3420 
Q 2234 3584 2584 3584 
Q 3122 3584 3439 3221 
Q 3756 2859 3756 2241 
Q 3756 1734 3570 1259 
Q 3384 784 3041 416 
Q 2816 172 2522 40 
Q 2228 -91 1906 -91 
Q 1566 -91 1316 65 
Q 1066 222 909 531 
L 806 0 
L 231 0 
L 1178 4863 
L 1753 4863 
L 1381 2969 
z
" transform="scale(0.015625)"/>
      <path id="DejaVuSans-Oblique-76" d="M 459 3500 
L 1069 3500 
L 1581 525 
L 3256 3500 
L 3866 3500 
L 1875 0 
L 1100 0 
L 459 3500 
z
" transform="scale(0.015625)"/>
      <path id="DejaVuSans-Oblique-74" d="M 2706 3500 
L 2619 3053 
L 1472 3053 
L 1100 1153 
Q 1081 1047 1072 975 
Q 1063 903 1063 863 
Q 1063 663 1183 572 
Q 1303 481 1569 481 
L 2150 481 
L 2053 0 
L 1503 0 
Q 991 0 739 200 
Q 488 400 488 806 
Q 488 878 497 964 
Q 506 1050 525 1153 
L 897 3053 
L 409 3053 
L 500 3500 
L 978 3500 
L 1172 4494 
L 1747 4494 
L 1556 3500 
L 2706 3500 
z
" transform="scale(0.015625)"/>
      <path id="DejaVuSans-Oblique-66" d="M 3059 4863 
L 2969 4384 
L 2419 4384 
Q 2106 4384 1964 4261 
Q 1822 4138 1753 3809 
L 1691 3500 
L 2638 3500 
L 2553 3053 
L 1606 3053 
L 1013 0 
L 434 0 
L 1031 3053 
L 481 3053 
L 563 3500 
L 1113 3500 
L 1159 3744 
Q 1278 4363 1576 4613 
Q 1875 4863 2516 4863 
L 3059 4863 
z
" transform="scale(0.015625)"/>
      <path id="DejaVuSans-Oblique-e9" d="M 3078 2063 
Q 3088 2113 3092 2166 
Q 3097 2219 3097 2272 
Q 3097 2653 2873 2875 
Q 2650 3097 2266 3097 
Q 1838 3097 1509 2826 
Q 1181 2556 1013 2059 
L 3078 2063 
z
M 3578 1613 
L 903 1613 
Q 884 1494 878 1425 
Q 872 1356 872 1306 
Q 872 872 1139 634 
Q 1406 397 1894 397 
Q 2269 397 2603 481 
Q 2938 566 3225 728 
L 3116 159 
Q 2806 34 2476 -28 
Q 2147 -91 1806 -91 
Q 1078 -91 686 257 
Q 294 606 294 1247 
Q 294 1794 489 2264 
Q 684 2734 1063 3103 
Q 1306 3334 1642 3459 
Q 1978 3584 2356 3584 
Q 2950 3584 3301 3228 
Q 3653 2872 3653 2272 
Q 3653 2128 3634 1964 
Q 3616 1800 3578 1613 
z
M 3063 5119 
L 3685 5119 
L 2438 3944 
L 1957 3944 
L 3063 5119 
z
" transform="scale(0.015625)"/>
      <path id="DejaVuSans-Oblique-2b" d="M 2944 4013 
L 2944 2272 
L 4684 2272 
L 4684 1741 
L 2944 1741 
L 2944 0 
L 2419 0 
L 2419 1741 
L 678 1741 
L 678 2272 
L 2419 2272 
L 2419 4013 
L 2944 4013 
z
" transform="scale(0.015625)"/>
      <path id="DejaVuSans-Oblique-43" d="M 4447 4306 
L 4319 3641 
Q 4019 3944 3683 4091 
Q 3347 4238 2956 4238 
Q 2422 4238 2017 3981 
Q 1613 3725 1319 3200 
Q 1131 2863 1032 2486 
Q 934 2109 934 1728 
Q 934 1091 1264 756 
Q 1594 422 2222 422 
Q 2656 422 3056 561 
Q 3456 700 3834 978 
L 3688 231 
Q 3316 72 2936 -9 
Q 2556 -91 2175 -91 
Q 1278 -91 773 396 
Q 269 884 269 1753 
Q 269 2309 461 2846 
Q 653 3384 1013 3828 
Q 1394 4300 1883 4525 
Q 2372 4750 3022 4750 
Q 3422 4750 3780 4639 
Q 4138 4528 4447 4306 
z
" transform="scale(0.015625)"/>
      <path id="DejaVuSans-Oblique-56" d="M 1319 0 
L 500 4666 
L 1119 4666 
L 1797 653 
L 4063 4666 
L 4750 4666 
L 2053 0 
L 1319 0 
z
" transform="scale(0.015625)"/>
      <path id="DejaVuSans-Oblique-52" d="M 1613 4147 
L 1294 2491 
L 2106 2491 
Q 2584 2491 2879 2755 
Q 3175 3019 3175 3444 
Q 3175 3784 2976 3965 
Q 2778 4147 2406 4147 
L 1613 4147 
z
M 2772 2241 
Q 2972 2194 3105 2009 
Q 3238 1825 3413 1275 
L 3809 0 
L 3144 0 
L 2778 1197 
Q 2638 1659 2453 1815 
Q 2269 1972 1888 1972 
L 1191 1972 
L 806 0 
L 172 0 
L 1081 4666 
L 2503 4666 
Q 3150 4666 3495 4373 
Q 3841 4081 3841 3531 
Q 3841 3044 3547 2687 
Q 3253 2331 2772 2241 
z
" transform="scale(0.015625)"/>
      <path id="DejaVuSans-Oblique-41" d="M 2356 4666 
L 3072 4666 
L 3938 0 
L 3278 0 
L 3084 1197 
L 984 1197 
L 325 0 
L -341 0 
L 2356 4666 
z
M 2584 4044 
L 1275 1722 
L 2988 1722 
L 2584 4044 
z
" transform="scale(0.015625)"/>
      <path id="DejaVuSans-Oblique-4f" d="M 2919 4238 
Q 2400 4238 2003 3986 
Q 1606 3734 1313 3219 
Q 1125 2891 1026 2522 
Q 928 2153 928 1778 
Q 928 1128 1239 775 
Q 1550 422 2119 422 
Q 2631 422 3032 676 
Q 3434 931 3719 1434 
Q 3909 1772 4009 2142 
Q 4109 2513 4109 2881 
Q 4109 3528 3796 3883 
Q 3484 4238 2919 4238 
z
M 2100 -91 
Q 1241 -91 748 418 
Q 256 928 256 1813 
Q 256 2319 448 2847 
Q 641 3375 978 3788 
Q 1375 4272 1862 4511 
Q 2350 4750 2938 4750 
Q 3794 4750 4287 4245 
Q 4781 3741 4781 2869 
Q 4781 2331 4593 1812 
Q 4406 1294 4056 872 
Q 3656 384 3173 146 
Q 2691 -91 2100 -91 
z
" transform="scale(0.015625)"/>
      <path id="DejaVuSans-Oblique-28" d="M 2731 4856 
Q 1903 3822 1495 2892 
Q 1088 1963 1088 1100 
Q 1088 606 1206 120 
Q 1325 -366 1563 -844 
L 1063 -844 
Q 775 -306 634 201 
Q 494 709 494 1197 
Q 494 2125 923 3036 
Q 1353 3947 2222 4856 
L 2731 4856 
z
" transform="scale(0.015625)"/>
      <path id="DejaVuSans-Oblique-47" d="M 3494 697 
L 3738 1919 
L 2700 1919 
L 2797 2438 
L 4453 2438 
L 4050 384 
Q 3634 156 3143 32 
Q 2653 -91 2156 -91 
Q 1278 -91 783 396 
Q 288 884 288 1753 
Q 288 2475 589 3126 
Q 891 3778 1422 4213 
Q 1756 4484 2153 4617 
Q 2550 4750 3034 4750 
Q 3472 4750 3873 4639 
Q 4275 4528 4641 4306 
L 4513 3634 
Q 4231 3928 3853 4083 
Q 3475 4238 3047 4238 
Q 2550 4238 2172 4048 
Q 1794 3859 1497 3463 
Q 1244 3125 1098 2667 
Q 953 2209 953 1734 
Q 953 1081 1287 751 
Q 1622 422 2284 422 
Q 2616 422 2925 492 
Q 3234 563 3494 697 
z
" transform="scale(0.015625)"/>
      <path id="DejaVuSans-Oblique-34" d="M 2753 4666 
L 3547 4666 
L 2950 1625 
L 3616 1625 
L 3513 1100 
L 2847 1100 
L 2638 0 
L 2009 0 
L 2222 1100 
L 116 1100 
L 238 1709 
L 2753 4666 
z
M 2809 4116 
L 728 1625 
L 2322 1625 
L 2809 4116 
z
" transform="scale(0.015625)"/>
      <path id="DejaVuSans-Oblique-29" d="M -397 -844 
Q 434 191 840 1120 
Q 1247 2050 1247 2913 
Q 1247 3406 1130 3892 
Q 1013 4378 775 4856 
L 1275 4856 
Q 1563 4316 1703 3812 
Q 1844 3309 1844 2822 
Q 1844 1891 1411 973 
Q 978 56 116 -844 
L -397 -844 
z
" transform="scale(0.015625)"/>
     </defs>
     <use xlink:href="#DejaVuSans-Oblique-c0"/>
     <use xlink:href="#DejaVuSans-Oblique-20" transform="translate(68.408203 0)"/>
     <use xlink:href="#DejaVuSans-Oblique-72" transform="translate(100.195312 0)"/>
     <use xlink:href="#DejaVuSans-Oblique-65" transform="translate(141.308594 0)"/>
     <use xlink:href="#DejaVuSans-Oblique-63" transform="translate(202.832031 0)"/>
     <use xlink:href="#DejaVuSans-Oblique-61" transform="translate(257.8125 0)"/>
     <use xlink:href="#DejaVuSans-Oblique-6c" transform="translate(319.091797 0)"/>
     <use xlink:href="#DejaVuSans-Oblique-69" transform="translate(346.875 0)"/>
     <use xlink:href="#DejaVuSans-Oblique-62" transform="translate(374.658203 0)"/>
     <use xlink:href="#DejaVuSans-Oblique-72" transform="translate(438.134766 0)"/>
     <use xlink:href="#DejaVuSans-Oblique-65" transform="translate(479.248047 0)"/>
     <use xlink:href="#DejaVuSans-Oblique-72" transform="translate(540.771484 0)"/>
     <use xlink:href="#DejaVuSans-Oblique-20" transform="translate(581.884766 0)"/>
     <use xlink:href="#DejaVuSans-Oblique-61" transform="translate(613.671875 0)"/>
     <use xlink:href="#DejaVuSans-Oblique-76" transform="translate(674.951172 0)"/>
     <use xlink:href="#DejaVuSans-Oblique-65" transform="translate(734.130859 0)"/>
     <use xlink:href="#DejaVuSans-Oblique-63" transform="translate(795.654297 0)"/>
     <use xlink:href="#DejaVuSans-Oblique-20" transform="translate(850.634766 0)"/>
     <use xlink:href="#DejaVuSans-Oblique-74" transform="translate(882.421875 0)"/>
     <use xlink:href="#DejaVuSans-Oblique-72" transform="translate(921.630859 0)"/>
     <use xlink:href="#DejaVuSans-Oblique-61" transform="translate(962.744141 0)"/>
     <use xlink:href="#DejaVuSans-Oblique-66" transform="translate(1024.023438 0)"/>
     <use xlink:href="#DejaVuSans-Oblique-69" transform="translate(1059.228516 0)"/>
     <use xlink:href="#DejaVuSans-Oblique-63" transform="translate(1087.011719 0)"/>
     <use xlink:href="#DejaVuSans-Oblique-20" transform="translate(1141.992188 0)"/>
     <use xlink:href="#DejaVuSans-Oblique-72" transform="translate(1173.779297 0)"/>
     <use xlink:href="#DejaVuSans-Oblique-e9" transform="translate(1214.892578 0)"/>
     <use xlink:href="#DejaVuSans-Oblique-65" transform="translate(1276.416016 0)"/>
     <use xlink:href="#DejaVuSans-Oblique-6c" transform="translate(1337.939453 0)"/>
     <use xlink:href="#DejaVuSans-Oblique-20" transform="translate(1365.722656 0)"/>
     <use xlink:href="#DejaVuSans-Oblique-2b" transform="translate(1397.509766 0)"/>
     <use xlink:href="#DejaVuSans-Oblique-20" transform="translate(1481.298828 0)"/>
     <use xlink:href="#DejaVuSans-Oblique-43" transform="translate(1513.085938 0)"/>
     <use xlink:href="#DejaVuSans-Oblique-56" transform="translate(1582.910156 0)"/>
     <use xlink:href="#DejaVuSans-Oblique-52" transform="translate(1651.318359 0)"/>
     <use xlink:href="#DejaVuSans-Oblique-20" transform="translate(1720.800781 0)"/>
     <use xlink:href="#DejaVuSans-Oblique-2b" transform="translate(1752.587891 0)"/>
     <use xlink:href="#DejaVuSans-Oblique-20" transform="translate(1836.376953 0)"/>
     <use xlink:href="#DejaVuSans-Oblique-41" transform="translate(1868.164062 0)"/>
     <use xlink:href="#DejaVuSans-Oblique-4f" transform="translate(1936.572266 0)"/>
     <use xlink:href="#DejaVuSans-Oblique-56" transform="translate(2015.283203 0)"/>
     <use xlink:href="#DejaVuSans-Oblique-20" transform="translate(2083.691406 0)"/>
     <use xlink:href="#DejaVuSans-Oblique-28" transform="translate(2115.478516 0)"/>
     <use xlink:href="#DejaVuSans-Oblique-47" transform="translate(2154.492188 0)"/>
     <use xlink:href="#DejaVuSans-Oblique-41" transform="translate(2231.982422 0)"/>
     <use xlink:href="#DejaVuSans-Oblique-34" transform="translate(2300.390625 0)"/>
     <use xlink:href="#DejaVuSans-Oblique-29" transform="translate(2364.013672 0)"/>
    </g>
   </g>
   <g id="text_8">
    <g id="patch_5">
     <path d="M 541.127531 323.877412 
L 649.728 323.877412 
Q 652.878 323.877412 652.878 320.727412 
L 652.878 301.939069 
Q 652.878 298.789069 649.728 298.789069 
L 541.127531 298.789069 
Q 537.977531 298.789069 537.977531 301.939069 
L 537.977531 320.727412 
Q 537.977531 323.877412 541.127531 323.877412 
z
" style="fill: #22d3ee; opacity: 0.95; stroke: #ffffff; stroke-linejoin: miter"/>
    </g>
    <!-- La perf est un sujet -->
    <g style="fill: #0f172a" transform="translate(562.516594 308.777662) scale(0.09 -0.09)">
     <defs>
      <path id="DejaVuSans-4c" d="M 628 4666 
L 1259 4666 
L 1259 531 
L 3531 531 
L 3531 0 
L 628 0 
L 628 4666 
z
" transform="scale(0.015625)"/>
      <path id="DejaVuSans-61" d="M 2194 1759 
Q 1497 1759 1228 1600 
Q 959 1441 959 1056 
Q 959 750 1161 570 
Q 1363 391 1709 391 
Q 2188 391 2477 730 
Q 2766 1069 2766 1631 
L 2766 1759 
L 2194 1759 
z
M 3341 1997 
L 3341 0 
L 2766 0 
L 2766 531 
Q 2569 213 2275 61 
Q 1981 -91 1556 -91 
Q 1019 -91 701 211 
Q 384 513 384 1019 
Q 384 1609 779 1909 
Q 1175 2209 1959 2209 
L 2766 2209 
L 2766 2266 
Q 2766 2663 2505 2880 
Q 2244 3097 1772 3097 
Q 1472 3097 1187 3025 
Q 903 2953 641 2809 
L 641 3341 
Q 956 3463 1253 3523 
Q 1550 3584 1831 3584 
Q 2591 3584 2966 3190 
Q 3341 2797 3341 1997 
z
" transform="scale(0.015625)"/>
      <path id="DejaVuSans-70" d="M 1159 525 
L 1159 -1331 
L 581 -1331 
L 581 3500 
L 1159 3500 
L 1159 2969 
Q 1341 3281 1617 3432 
Q 1894 3584 2278 3584 
Q 2916 3584 3314 3078 
Q 3713 2572 3713 1747 
Q 3713 922 3314 415 
Q 2916 -91 2278 -91 
Q 1894 -91 1617 61 
Q 1341 213 1159 525 
z
M 3116 1747 
Q 3116 2381 2855 2742 
Q 2594 3103 2138 3103 
Q 1681 3103 1420 2742 
Q 1159 2381 1159 1747 
Q 1159 1113 1420 752 
Q 1681 391 2138 391 
Q 2594 391 2855 752 
Q 3116 1113 3116 1747 
z
" transform="scale(0.015625)"/>
      <path id="DejaVuSans-72" d="M 2631 2963 
Q 2534 3019 2420 3045 
Q 2306 3072 2169 3072 
Q 1681 3072 1420 2755 
Q 1159 2438 1159 1844 
L 1159 0 
L 581 0 
L 581 3500 
L 1159 3500 
L 1159 2956 
Q 1341 3275 1631 3429 
Q 1922 3584 2338 3584 
Q 2397 3584 2469 3576 
Q 2541 3569 2628 3553 
L 2631 2963 
z
" transform="scale(0.015625)"/>
      <path id="DejaVuSans-66" d="M 2375 4863 
L 2375 4384 
L 1825 4384 
Q 1516 4384 1395 4259 
Q 1275 4134 1275 3809 
L 1275 3500 
L 2222 3500 
L 2222 3053 
L 1275 3053 
L 1275 0 
L 697 0 
L 697 3053 
L 147 3053 
L 147 3500 
L 697 3500 
L 697 3744 
Q 697 4328 969 4595 
Q 1241 4863 1831 4863 
L 2375 4863 
z
" transform="scale(0.015625)"/>
      <path id="DejaVuSans-75" d="M 544 1381 
L 544 3500 
L 1119 3500 
L 1119 1403 
Q 1119 906 1312 657 
Q 1506 409 1894 409 
Q 2359 409 2629 706 
Q 2900 1003 2900 1516 
L 2900 3500 
L 3475 3500 
L 3475 0 
L 2900 0 
L 2900 538 
Q 2691 219 2414 64 
Q 2138 -91 1772 -91 
Q 1169 -91 856 284 
Q 544 659 544 1381 
z
M 1991 3584 
L 1991 3584 
z
" transform="scale(0.015625)"/>
      <path id="DejaVuSans-6e" d="M 3513 2113 
L 3513 0 
L 2938 0 
L 2938 2094 
Q 2938 2591 2744 2837 
Q 2550 3084 2163 3084 
Q 1697 3084 1428 2787 
Q 1159 2491 1159 1978 
L 1159 0 
L 581 0 
L 581 3500 
L 1159 3500 
L 1159 2956 
Q 1366 3272 1645 3428 
Q 1925 3584 2291 3584 
Q 2894 3584 3203 3211 
Q 3513 2838 3513 2113 
z
" transform="scale(0.015625)"/>
      <path id="DejaVuSans-6a" d="M 603 3500 
L 1178 3500 
L 1178 -63 
Q 1178 -731 923 -1031 
Q 669 -1331 103 -1331 
L -116 -1331 
L -116 -844 
L 38 -844 
Q 366 -844 484 -692 
Q 603 -541 603 -63 
L 603 3500 
z
M 603 4863 
L 1178 4863 
L 1178 4134 
L 603 4134 
L 603 4863 
z
" transform="scale(0.015625)"/>
     </defs>
     <use xlink:href="#DejaVuSans-4c"/>
     <use xlink:href="#DejaVuSans-61" transform="translate(55.712891 0)"/>
     <use xlink:href="#DejaVuSans-20" transform="translate(116.992188 0)"/>
     <use xlink:href="#DejaVuSans-70" transform="translate(148.779297 0)"/>
     <use xlink:href="#DejaVuSans-65" transform="translate(212.255859 0)"/>
     <use xlink:href="#DejaVuSans-72" transform="translate(273.779297 0)"/>
     <use xlink:href="#DejaVuSans-66" transform="translate(314.892578 0)"/>
     <use xlink:href="#DejaVuSans-20" transform="translate(350.097656 0)"/>
     <use xlink:href="#DejaVuSans-65" transform="translate(381.884766 0)"/>
     <use xlink:href="#DejaVuSans-73" transform="translate(443.408203 0)"/>
     <use xlink:href="#DejaVuSans-74" transform="translate(495.507812 0)"/>
     <use xlink:href="#DejaVuSans-20" transform="translate(534.716797 0)"/>
     <use xlink:href="#DejaVuSans-75" transform="translate(566.503906 0)"/>
     <use xlink:href="#DejaVuSans-6e" transform="translate(629.882812 0)"/>
     <use xlink:href="#DejaVuSans-20" transform="translate(693.261719 0)"/>
     <use xlink:href="#DejaVuSans-73" transform="translate(725.048828 0)"/>
     <use xlink:href="#DejaVuSans-75" transform="translate(777.148438 0)"/>
     <use xlink:href="#DejaVuSans-6a" transform="translate(840.527344 0)"/>
     <use xlink:href="#DejaVuSans-65" transform="translate(868.310547 0)"/>
     <use xlink:href="#DejaVuSans-74" transform="translate(929.833984 0)"/>
    </g>
    <!-- business, pas technique -->
    <g style="fill: #0f172a" transform="translate(541.127531 318.855694) scale(0.09 -0.09)">
     <defs>
      <path id="DejaVuSans-62" d="M 3116 1747 
Q 3116 2381 2855 2742 
Q 2594 3103 2138 3103 
Q 1681 3103 1420 2742 
Q 1159 2381 1159 1747 
Q 1159 1113 1420 752 
Q 1681 391 2138 391 
Q 2594 391 2855 752 
Q 3116 1113 3116 1747 
z
M 1159 2969 
Q 1341 3281 1617 3432 
Q 1894 3584 2278 3584 
Q 2916 3584 3314 3078 
Q 3713 2572 3713 1747 
Q 3713 922 3314 415 
Q 2916 -91 2278 -91 
Q 1894 -91 1617 61 
Q 1341 213 1159 525 
L 1159 0 
L 581 0 
L 581 4863 
L 1159 4863 
L 1159 2969 
z
" transform="scale(0.015625)"/>
      <path id="DejaVuSans-2c" d="M 750 794 
L 1409 794 
L 1409 256 
L 897 -744 
L 494 -744 
L 750 256 
L 750 794 
z
" transform="scale(0.015625)"/>
      <path id="DejaVuSans-63" d="M 3122 3366 
L 3122 2828 
Q 2878 2963 2633 3030 
Q 2388 3097 2138 3097 
Q 1578 3097 1268 2742 
Q 959 2388 959 1747 
Q 959 1106 1268 751 
Q 1578 397 2138 397 
Q 2388 397 2633 464 
Q 2878 531 3122 666 
L 3122 134 
Q 2881 22 2623 -34 
Q 2366 -91 2075 -91 
Q 1284 -91 818 406 
Q 353 903 353 1747 
Q 353 2603 823 3093 
Q 1294 3584 2113 3584 
Q 2378 3584 2631 3529 
Q 2884 3475 3122 3366 
z
" transform="scale(0.015625)"/>
      <path id="DejaVuSans-68" d="M 3513 2113 
L 3513 0 
L 2938 0 
L 2938 2094 
Q 2938 2591 2744 2837 
Q 2550 3084 2163 3084 
Q 1697 3084 1428 2787 
Q 1159 2491 1159 1978 
L 1159 0 
L 581 0 
L 581 4863 
L 1159 4863 
L 1159 2956 
Q 1366 3272 1645 3428 
Q 1925 3584 2291 3584 
Q 2894 3584 3203 3211 
Q 3513 2838 3513 2113 
z
" transform="scale(0.015625)"/>
      <path id="DejaVuSans-71" d="M 947 1747 
Q 947 1113 1208 752 
Q 1469 391 1925 391 
Q 2381 391 2643 752 
Q 2906 1113 2906 1747 
Q 2906 2381 2643 2742 
Q 2381 3103 1925 3103 
Q 1469 3103 1208 2742 
Q 947 2381 947 1747 
z
M 2906 525 
Q 2725 213 2448 61 
Q 2172 -91 1784 -91 
Q 1150 -91 751 415 
Q 353 922 353 1747 
Q 353 2572 751 3078 
Q 1150 3584 1784 3584 
Q 2172 3584 2448 3432 
Q 2725 3281 2906 2969 
L 2906 3500 
L 3481 3500 
L 3481 -1331 
L 2906 -1331 
L 2906 525 
z
" transform="scale(0.015625)"/>
     </defs>
     <use xlink:href="#DejaVuSans-62"/>
     <use xlink:href="#DejaVuSans-75" transform="translate(63.476562 0)"/>
     <use xlink:href="#DejaVuSans-73" transform="translate(126.855469 0)"/>
     <use xlink:href="#DejaVuSans-69" transform="translate(178.955078 0)"/>
     <use xlink:href="#DejaVuSans-6e" transform="translate(206.738281 0)"/>
     <use xlink:href="#DejaVuSans-65" transform="translate(270.117188 0)"/>
     <use xlink:href="#DejaVuSans-73" transform="translate(331.640625 0)"/>
     <use xlink:href="#DejaVuSans-73" transform="translate(383.740234 0)"/>
     <use xlink:href="#DejaVuSans-2c" transform="translate(435.839844 0)"/>
     <use xlink:href="#DejaVuSans-20" transform="translate(467.626953 0)"/>
     <use xlink:href="#DejaVuSans-70" transform="translate(499.414062 0)"/>
     <use xlink:href="#DejaVuSans-61" transform="translate(562.890625 0)"/>
     <use xlink:href="#DejaVuSans-73" transform="translate(624.169922 0)"/>
     <use xlink:href="#DejaVuSans-20" transform="translate(676.269531 0)"/>
     <use xlink:href="#DejaVuSans-74" transform="translate(708.056641 0)"/>
     <use xlink:href="#DejaVuSans-65" transform="translate(747.265625 0)"/>
     <use xlink:href="#DejaVuSans-63" transform="translate(808.789062 0)"/>
     <use xlink:href="#DejaVuSans-68" transform="translate(863.769531 0)"/>
     <use xlink:href="#DejaVuSans-6e" transform="translate(927.148438 0)"/>
     <use xlink:href="#DejaVuSans-69" transform="translate(990.527344 0)"/>
     <use xlink:href="#DejaVuSans-71" transform="translate(1018.310547 0)"/>
     <use xlink:href="#DejaVuSans-75" transform="translate(1081.787109 0)"/>
     <use xlink:href="#DejaVuSans-65" transform="translate(1145.166016 0)"/>
    </g>
   </g>
   <g id="text_9">
    <!-- Manque à gagner (ordre de grandeur) -->
    <g style="fill: #ffffff" transform="translate(206.158125 18.397812) scale(0.14 -0.14)">
     <defs>
      <path id="DejaVuSans-Bold-4d" d="M 588 4666 
L 2119 4666 
L 3181 2169 
L 4250 4666 
L 5778 4666 
L 5778 0 
L 4641 0 
L 4641 3413 
L 3566 897 
L 2803 897 
L 1728 3413 
L 1728 0 
L 588 0 
L 588 4666 
z
" transform="scale(0.015625)"/>
      <path id="DejaVuSans-Bold-61" d="M 2106 1575 
Q 1756 1575 1579 1456 
Q 1403 1338 1403 1106 
Q 1403 894 1545 773 
Q 1688 653 1941 653 
Q 2256 653 2472 879 
Q 2688 1106 2688 1447 
L 2688 1575 
L 2106 1575 
z
M 3816 1997 
L 3816 0 
L 2688 0 
L 2688 519 
Q 2463 200 2181 54 
Q 1900 -91 1497 -91 
Q 953 -91 614 226 
Q 275 544 275 1050 
Q 275 1666 698 1953 
Q 1122 2241 2028 2241 
L 2688 2241 
L 2688 2328 
Q 2688 2594 2478 2717 
Q 2269 2841 1825 2841 
Q 1466 2841 1156 2769 
Q 847 2697 581 2553 
L 581 3406 
Q 941 3494 1303 3539 
Q 1666 3584 2028 3584 
Q 2975 3584 3395 3211 
Q 3816 2838 3816 1997 
z
" transform="scale(0.015625)"/>
      <path id="DejaVuSans-Bold-6e" d="M 4056 2131 
L 4056 0 
L 2931 0 
L 2931 347 
L 2931 1631 
Q 2931 2084 2911 2256 
Q 2891 2428 2841 2509 
Q 2775 2619 2662 2680 
Q 2550 2741 2406 2741 
Q 2056 2741 1856 2470 
Q 1656 2200 1656 1722 
L 1656 0 
L 538 0 
L 538 3500 
L 1656 3500 
L 1656 2988 
Q 1909 3294 2193 3439 
Q 2478 3584 2822 3584 
Q 3428 3584 3742 3212 
Q 4056 2841 4056 2131 
z
" transform="scale(0.015625)"/>
      <path id="DejaVuSans-Bold-71" d="M 2181 2772 
Q 1825 2772 1636 2509 
Q 1447 2247 1447 1747 
Q 1447 1247 1636 984 
Q 1825 722 2181 722 
Q 2541 722 2730 984 
Q 2919 1247 2919 1747 
Q 2919 2247 2730 2509 
Q 2541 2772 2181 2772 
z
M 2919 506 
Q 2688 197 2409 53 
Q 2131 -91 1766 -91 
Q 1119 -91 703 423 
Q 288 938 288 1747 
Q 288 2556 703 3067 
Q 1119 3578 1766 3578 
Q 2131 3578 2409 3434 
Q 2688 3291 2919 2981 
L 2919 3500 
L 4044 3500 
L 4044 -1331 
L 2919 -1331 
L 2919 506 
z
" transform="scale(0.015625)"/>
      <path id="DejaVuSans-Bold-75" d="M 500 1363 
L 500 3500 
L 1625 3500 
L 1625 3150 
Q 1625 2866 1622 2436 
Q 1619 2006 1619 1863 
Q 1619 1441 1641 1255 
Q 1663 1069 1716 984 
Q 1784 875 1895 815 
Q 2006 756 2150 756 
Q 2500 756 2700 1025 
Q 2900 1294 2900 1772 
L 2900 3500 
L 4019 3500 
L 4019 0 
L 2900 0 
L 2900 506 
Q 2647 200 2364 54 
Q 2081 -91 1741 -91 
Q 1134 -91 817 281 
Q 500 653 500 1363 
z
" transform="scale(0.015625)"/>
      <path id="DejaVuSans-Bold-65" d="M 4031 1759 
L 4031 1441 
L 1416 1441 
Q 1456 1047 1700 850 
Q 1944 653 2381 653 
Q 2734 653 3104 758 
Q 3475 863 3866 1075 
L 3866 213 
Q 3469 63 3072 -14 
Q 2675 -91 2278 -91 
Q 1328 -91 801 392 
Q 275 875 275 1747 
Q 275 2603 792 3093 
Q 1309 3584 2216 3584 
Q 3041 3584 3536 3087 
Q 4031 2591 4031 1759 
z
M 2881 2131 
Q 2881 2450 2695 2645 
Q 2509 2841 2209 2841 
Q 1884 2841 1681 2658 
Q 1478 2475 1428 2131 
L 2881 2131 
z
" transform="scale(0.015625)"/>
      <path id="DejaVuSans-Bold-e0" d="M 2106 1575 
Q 1756 1575 1579 1456 
Q 1403 1338 1403 1106 
Q 1403 894 1545 773 
Q 1688 653 1941 653 
Q 2256 653 2472 879 
Q 2688 1106 2688 1447 
L 2688 1575 
L 2106 1575 
z
M 3816 1997 
L 3816 0 
L 2688 0 
L 2688 519 
Q 2463 200 2181 54 
Q 1900 -91 1497 -91 
Q 953 -91 614 226 
Q 275 544 275 1050 
Q 275 1666 698 1953 
Q 1122 2241 2028 2241 
L 2688 2241 
L 2688 2328 
Q 2688 2594 2478 2717 
Q 2269 2841 1825 2841 
Q 1466 2841 1156 2769 
Q 847 2697 581 2553 
L 581 3406 
Q 941 3494 1303 3539 
Q 1666 3584 2028 3584 
Q 2975 3584 3395 3211 
Q 3816 2838 3816 1997 
z
M 1762 5119 
L 2643 3944 
L 2031 3944 
L 878 5119 
L 1762 5119 
z
" transform="scale(0.015625)"/>
      <path id="DejaVuSans-Bold-67" d="M 2919 594 
Q 2688 288 2409 144 
Q 2131 0 1766 0 
Q 1125 0 706 504 
Q 288 1009 288 1791 
Q 288 2575 706 3076 
Q 1125 3578 1766 3578 
Q 2131 3578 2409 3434 
Q 2688 3291 2919 2981 
L 2919 3500 
L 4044 3500 
L 4044 353 
Q 4044 -491 3511 -936 
Q 2978 -1381 1966 -1381 
Q 1638 -1381 1331 -1331 
Q 1025 -1281 716 -1178 
L 716 -306 
Q 1009 -475 1290 -558 
Q 1572 -641 1856 -641 
Q 2406 -641 2662 -400 
Q 2919 -159 2919 353 
L 2919 594 
z
M 2181 2772 
Q 1834 2772 1640 2515 
Q 1447 2259 1447 1791 
Q 1447 1309 1634 1061 
Q 1822 813 2181 813 
Q 2531 813 2725 1069 
Q 2919 1325 2919 1791 
Q 2919 2259 2725 2515 
Q 2531 2772 2181 2772 
z
" transform="scale(0.015625)"/>
      <path id="DejaVuSans-Bold-72" d="M 3138 2547 
Q 2991 2616 2845 2648 
Q 2700 2681 2553 2681 
Q 2122 2681 1889 2404 
Q 1656 2128 1656 1613 
L 1656 0 
L 538 0 
L 538 3500 
L 1656 3500 
L 1656 2925 
Q 1872 3269 2151 3426 
Q 2431 3584 2822 3584 
Q 2878 3584 2943 3579 
Q 3009 3575 3134 3559 
L 3138 2547 
z
" transform="scale(0.015625)"/>
      <path id="DejaVuSans-Bold-28" d="M 2413 -844 
L 1484 -844 
Q 1006 -72 778 623 
Q 550 1319 550 2003 
Q 550 2688 779 3389 
Q 1009 4091 1484 4856 
L 2413 4856 
Q 2013 4116 1813 3408 
Q 1613 2700 1613 2009 
Q 1613 1319 1811 609 
Q 2009 -100 2413 -844 
z
" transform="scale(0.015625)"/>
      <path id="DejaVuSans-Bold-64" d="M 2919 2988 
L 2919 4863 
L 4044 4863 
L 4044 0 
L 2919 0 
L 2919 506 
Q 2688 197 2409 53 
Q 2131 -91 1766 -91 
Q 1119 -91 703 423 
Q 288 938 288 1747 
Q 288 2556 703 3070 
Q 1119 3584 1766 3584 
Q 2128 3584 2408 3439 
Q 2688 3294 2919 2988 
z
M 2181 722 
Q 2541 722 2730 984 
Q 2919 1247 2919 1747 
Q 2919 2247 2730 2509 
Q 2541 2772 2181 2772 
Q 1825 2772 1636 2509 
Q 1447 2247 1447 1747 
Q 1447 1247 1636 984 
Q 1825 722 2181 722 
z
" transform="scale(0.015625)"/>
      <path id="DejaVuSans-Bold-29" d="M 513 -844 
Q 913 -100 1113 609 
Q 1313 1319 1313 2009 
Q 1313 2700 1113 3408 
Q 913 4116 513 4856 
L 1441 4856 
Q 1916 4091 2145 3389 
Q 2375 2688 2375 2003 
Q 2375 1319 2147 623 
Q 1919 -72 1441 -844 
L 513 -844 
z
" transform="scale(0.015625)"/>
     </defs>
     <use xlink:href="#DejaVuSans-Bold-4d"/>
     <use xlink:href="#DejaVuSans-Bold-61" transform="translate(99.511719 0)"/>
     <use xlink:href="#DejaVuSans-Bold-6e" transform="translate(166.992188 0)"/>
     <use xlink:href="#DejaVuSans-Bold-71" transform="translate(238.183594 0)"/>
     <use xlink:href="#DejaVuSans-Bold-75" transform="translate(309.765625 0)"/>
     <use xlink:href="#DejaVuSans-Bold-65" transform="translate(380.957031 0)"/>
     <use xlink:href="#DejaVuSans-Bold-20" transform="translate(448.779297 0)"/>
     <use xlink:href="#DejaVuSans-Bold-e0" transform="translate(483.59375 0)"/>
     <use xlink:href="#DejaVuSans-Bold-20" transform="translate(551.074219 0)"/>
     <use xlink:href="#DejaVuSans-Bold-67" transform="translate(585.888672 0)"/>
     <use xlink:href="#DejaVuSans-Bold-61" transform="translate(657.470703 0)"/>
     <use xlink:href="#DejaVuSans-Bold-67" transform="translate(724.951172 0)"/>
     <use xlink:href="#DejaVuSans-Bold-6e" transform="translate(796.533203 0)"/>
     <use xlink:href="#DejaVuSans-Bold-65" transform="translate(867.724609 0)"/>
     <use xlink:href="#DejaVuSans-Bold-72" transform="translate(935.546875 0)"/>
     <use xlink:href="#DejaVuSans-Bold-20" transform="translate(984.863281 0)"/>
     <use xlink:href="#DejaVuSans-Bold-28" transform="translate(1019.677734 0)"/>
     <use xlink:href="#DejaVuSans-Bold-6f" transform="translate(1065.380859 0)"/>
     <use xlink:href="#DejaVuSans-Bold-72" transform="translate(1134.082031 0)"/>
     <use xlink:href="#DejaVuSans-Bold-64" transform="translate(1183.398438 0)"/>
     <use xlink:href="#DejaVuSans-Bold-72" transform="translate(1254.980469 0)"/>
     <use xlink:href="#DejaVuSans-Bold-65" transform="translate(1304.296875 0)"/>
     <use xlink:href="#DejaVuSans-Bold-20" transform="translate(1372.119141 0)"/>
     <use xlink:href="#DejaVuSans-Bold-64" transform="translate(1406.933594 0)"/>
     <use xlink:href="#DejaVuSans-Bold-65" transform="translate(1478.515625 0)"/>
     <use xlink:href="#DejaVuSans-Bold-20" transform="translate(1546.337891 0)"/>
     <use xlink:href="#DejaVuSans-Bold-67" transform="translate(1581.152344 0)"/>
     <use xlink:href="#DejaVuSans-Bold-72" transform="translate(1652.734375 0)"/>
     <use xlink:href="#DejaVuSans-Bold-61" transform="translate(1702.050781 0)"/>
     <use xlink:href="#DejaVuSans-Bold-6e" transform="translate(1769.53125 0)"/>
     <use xlink:href="#DejaVuSans-Bold-64" transform="translate(1840.722656 0)"/>
     <use xlink:href="#DejaVuSans-Bold-65" transform="translate(1912.304688 0)"/>
     <use xlink:href="#DejaVuSans-Bold-75" transform="translate(1980.126953 0)"/>
     <use xlink:href="#DejaVuSans-Bold-72" transform="translate(2051.318359 0)"/>
     <use xlink:href="#DejaVuSans-Bold-29" transform="translate(2100.634766 0)"/>
    </g>
   </g>
  </g>
 </g>
 <defs>
  <clipPath id="pc63c8e56a0">
   <rect x="7.2" y="38.397812" width="698.4" height="306.88"/>
  </clipPath>
 </defs>
</svg>
